# xmcd
#
# Track frame offsets: 
#        150
#        14985
#        31068
#        48541
#        61885
#        83883
#        105468
#        122902
#        141058
#        158700
#        176157
#        198125
#        214943
#
# Disc length: 3105 seconds
#
# Revision: 0
# Processed by: cddbd v1.5.2PL0 Copyright (c) Steve Scherf et al.
# Submitted via: ExactAudioCopyFreeDBPlugin 1.0
#
DISCID=b40c1f0d
DTITLE=Lady Antebellum - Own The Night
DYEAR=2011
DGENRE=Country
TTITLE0=We Owned The Night
TTITLE1=Just A Kiss
TTITLE2=Dancin' Away With My Heart
TTITLE3=Friday Night
TTITLE4=When You Were Mine
TTITLE5=Cold As Stone
TTITLE6=Singing Me Home
TTITLE7=Wanted You More
TTITLE8=As You Turn Away
TTITLE9=Love I've Found In You
TTITLE10=Somewhere Love Remains
TTITLE11=Heart Of The World
TTITLE12=Bonus Track - Need You Now (Acoustic)
EXTD=
EXTT0=
EXTT1=
EXTT2=
EXTT3=
EXTT4=
EXTT5=
EXTT6=
EXTT7=
EXTT8=
EXTT9=
EXTT10=
EXTT11=
EXTT12=
PLAYORDER=
